<svg width="70" height="70" viewBox="0 0 18 20" fill="none" xmlns="http://www.w3.org/2000/svg">
<g clip-path="url(#clip0_9_2)">
<rect width="18" height="20" fill="white"/>
<rect x="-6" y="-4" width="30" height="30" rx="8" fill="white"/>
<path fill-rule="evenodd" clip-rule="evenodd" d="M8.6 5H2C1.05719 5 0.585786 5 0.292893 5.29289C0 5.58579 0 6.05719 0 7V10.7929C0 11.0813 0 11.2255 0.0383061 11.3599C0.059349 11.4337 0.0888223 11.5049 0.126144 11.572C0.131398 11.5814 0.136857 11.5907 0.14255 11.6H8.6V5ZM0.5 12.4V18C0.5 18.9428 0.5 19.4142 0.792893 19.7071C1.08579 20 1.55719 20 2.5 20H8.6V12.4H0.5ZM9.4 20H15.5C16.4428 20 16.9142 20 17.2071 19.7071C17.5 19.4142 17.5 18.9428 17.5 18V12.4H9.4V20ZM17.6625 11.6L17.8529 11.1312C17.9262 10.9508 17.9629 10.8606 17.9814 10.7656C18 10.6706 18 10.5732 18 10.3785V7C18 6.05719 18 5.58579 17.7071 5.29289C17.4142 5 16.9428 5 16 5H9.4V11.6H17.6625Z" fill="white"/>
<path d="M16 2.63246V2.45035C16 1.24487 14.819 0.393664 13.6754 0.774867C12.2448 1.25174 10.9449 2.05514 9.87856 3.12144L9 4V5H12.6754C12.8904 5 13.104 4.96534 13.3079 4.89737L14.7026 4.43246C15.4774 4.1742 16 3.44914 16 2.63246Z" fill="#00CB5B"/>
<path d="M13.1217 3.92593L14.1831 3.62872C14.6661 3.49349 15 3.05327 15 2.55172C15 1.78834 14.2521 1.24929 13.5279 1.4907L13.4503 1.51658C12.4965 1.83449 11.6299 2.37009 10.919 3.08096L10 4H12.5824C12.7647 4 12.9461 3.97508 13.1217 3.92593Z" fill="white"/>
<path d="M2 2.63246V2.45035C2 1.24487 3.18099 0.393664 4.3246 0.774867C5.75521 1.25174 7.05514 2.05514 8.12144 3.12144L9 4V5H5.32456C5.10959 5 4.89603 4.96534 4.6921 4.89737L3.29737 4.43246C2.52259 4.1742 2 3.44914 2 2.63246Z" fill="#00CB5B"/>
<path d="M4.71884 3.91565L3.80244 3.64073C3.32616 3.49785 3 3.05948 3 2.56223C3 1.79367 3.75295 1.25098 4.48206 1.49402L4.54973 1.51658C5.50347 1.83449 6.37009 2.37009 7.08096 3.08096L7.5 3.5L8 4H5.29354C5.09889 4 4.90528 3.97158 4.71884 3.91565Z" fill="white"/>
<rect x="-0.399994" y="10.5" width="19" height="2" fill="white"/>
<path d="M0.5 11H8.6V13H0.5V11Z" fill="white"/>
<path d="M9.39999 11H17.5V13H9.39999V11Z" fill="white"/>
<path d="M0 6C0 5.44772 0.447715 5 1 5H8.6V10.5H0V6Z" fill="#00CB5B"/>
<path d="M0.5 11H8.6V20H1.5C0.947715 20 0.5 19.5523 0.5 19V11Z" fill="#00CB5B"/>
<path d="M9.39999 11H17.5V19C17.5 19.5523 17.0523 20 16.5 20H9.39999V11Z" fill="#102B7B"/>
<path d="M9.39999 5H17C17.5523 5 18 5.44772 18 6V10.5H9.39999V5Z" fill="#00CB5B"/>
</g>
<defs>
<clipPath id="clip0_9_2">
<rect width="18" height="20" fill="white"/>
</clipPath>
</defs>
</svg>
