<svg width="40" height="40" viewBox="0 0 30 30" fill="none" xmlns="http://www.w3.org/2000/svg">
<rect width="30" height="30" fill="#212529"/>
<path d="M15.398 20.804L15.8585 21.6917L15.8585 21.6917L15.398 20.804ZM14.602 20.804L14.1415 21.6917L14.1415 21.6917L14.602 20.804ZM21 12C21 14.1458 19.9079 15.9159 18.545 17.2906C17.183 18.6644 15.6342 19.555 14.9376 19.9163L15.8585 21.6917C16.6448 21.2838 18.397 20.2805 19.9653 18.6987C21.5326 17.1178 23 14.8706 23 12H21ZM15 6C18.3137 6 21 8.68629 21 12H23C23 7.58172 19.4183 4 15 4V6ZM9 12C9 8.68629 11.6863 6 15 6V4C10.5817 4 7 7.58172 7 12H9ZM15.0624 19.9163C14.3658 19.555 12.817 18.6644 11.455 17.2906C10.0921 15.9159 9 14.1458 9 12H7C7 14.8706 8.46741 17.1178 10.0347 18.6987C11.603 20.2805 13.3552 21.2838 14.1415 21.6917L15.0624 19.9163ZM14.9376 19.9163C14.9514 19.9091 14.9733 19.9023 15 19.9023C15.0267 19.9023 15.0486 19.9091 15.0624 19.9163L14.1415 21.6917C14.6831 21.9726 15.3169 21.9726 15.8585 21.6917L14.9376 19.9163ZM17 12C17 13.1046 16.1046 14 15 14V16C17.2091 16 19 14.2091 19 12H17ZM15 10C16.1046 10 17 10.8954 17 12H19C19 9.79086 17.2091 8 15 8V10ZM13 12C13 10.8954 13.8954 10 15 10V8C12.7909 8 11 9.79086 11 12H13ZM15 14C13.8954 14 13 13.1046 13 12H11C11 14.2091 12.7909 16 15 16V14Z" fill="white"/>
<path d="M22.7942 20.5C23.5841 20.9561 24 21.4734 24 22C24 22.5266 23.5841 23.0439 22.7942 23.5C22.0043 23.9561 20.8682 24.3348 19.5 24.5981C18.1318 24.8614 16.5798 25 15 25C13.4202 25 11.8682 24.8614 10.5 24.5981C9.13183 24.3348 7.99569 23.9561 7.20577 23.5C6.41586 23.0439 6 22.5266 6 22C6 21.4734 6.41586 20.9561 7.20577 20.5" stroke="white" stroke-width="2" stroke-linecap="round"/>
</svg>
