<svg width="40" height="40" viewBox="0 0 30 30" fill="none" xmlns="http://www.w3.org/2000/svg">
<rect width="30" height="30" fill="#212529"/>
<path d="M7.67962 5.84669L8.81921 4.70711C9.20973 4.31658 9.8429 4.31658 10.2334 4.70711L13.2403 7.71395C13.6308 8.10447 13.6308 8.73763 13.2403 9.12816L11.1847 11.1837C10.8544 11.514 10.7725 12.0187 10.9814 12.4365C12.1892 14.8521 14.1479 16.8108 16.5635 18.0186C16.9813 18.2275 17.486 18.1456 17.8163 17.8153L19.8718 15.7597C20.2624 15.3692 20.8955 15.3692 21.2861 15.7597L24.2929 18.7666C24.6834 19.1571 24.6834 19.7903 24.2929 20.1808L23.1533 21.3204C21.042 23.4317 17.6994 23.6693 15.3107 21.8777L13.2602 20.3398C11.5166 19.0322 9.9678 17.4834 8.66015 15.7399L7.12226 13.6893C5.33072 11.3006 5.56827 7.95804 7.67962 5.84669Z" fill="white"/>
</svg>
